<svg width="440" height="83" viewBox="0 0 440 83" fill="none" xmlns="http://www.w3.org/2000/svg">
<mask id="path-1-inside-1_92_83" fill="white">
<path fill-rule="evenodd" clip-rule="evenodd" d="M47 39.0432C47 40.2286 46.7545 41.3566 46.3115 42.3792C44.1892 37.4262 40.217 33.4541 35.264 31.3318C36.2866 30.8888 37.4146 30.6432 38.6 30.6432C43.2392 30.6432 47 34.4041 47 39.0432ZM15.4001 30.6432C16.5854 30.6432 17.7135 30.8888 18.7361 31.3318C13.783 33.4541 9.81091 37.4262 7.68858 42.3793C7.24559 41.3567 7.00005 40.2286 7.00005 39.0432C7.00005 34.4041 10.7609 30.6432 15.4001 30.6432ZM46.3115 58.9073C44.1892 63.8603 40.217 67.8324 35.264 69.9547C36.2866 70.3977 37.4146 70.6433 38.6 70.6433C43.2392 70.6433 47 66.8824 47 62.2433C47 61.0579 46.7545 59.9299 46.3115 58.9073ZM7.00005 62.2433C7.00005 61.0579 7.24559 59.9298 7.68858 58.9072C9.81091 63.8603 13.783 67.8324 18.7361 69.9547C17.7135 70.3977 16.5854 70.6433 15.4001 70.6433C10.7609 70.6433 7.00005 66.8824 7.00005 62.2433ZM23.2537 35.6432C22.2615 35.643 21.2404 35.6429 20.3657 35.7143C19.3895 35.7941 18.1643 35.9872 16.9141 36.6242C15.2207 37.487 13.8438 38.8639 12.981 40.5573C12.344 41.8075 12.1509 43.0327 12.0711 44.0089C11.9997 44.8837 11.9998 45.9047 12 46.8969L12 54.3895C11.9998 55.3817 11.9997 56.4028 12.0711 57.2776C12.1509 58.2538 12.344 59.479 12.981 60.7291C13.8438 62.4226 15.2207 63.7994 16.9141 64.6623C18.1643 65.2993 19.3895 65.4924 20.3657 65.5721C21.2405 65.6436 22.2615 65.6434 23.2537 65.6432H30.7463C31.7385 65.6434 32.7596 65.6436 33.6344 65.5721C34.6106 65.4924 35.8358 65.2993 37.086 64.6623C38.7794 63.7994 40.1562 62.4226 41.0191 60.7291C41.6561 59.479 41.8492 58.2538 41.9289 57.2776C42.0004 56.4028 42.0002 55.3817 42.0001 54.3895L42.0001 46.8969C42.0002 45.9047 42.0004 44.8837 41.9289 44.0089C41.8492 43.0327 41.6561 41.8075 41.0191 40.5573C40.1562 38.8639 38.7794 37.487 37.086 36.6242C35.8358 35.9872 34.6106 35.7941 33.6344 35.7143C32.7596 35.6429 31.7385 35.643 30.7463 35.6432L23.2538 35.6432L23.2537 35.6432ZM18 43.6433C18 42.7004 18 42.229 18.2929 41.9361C18.5858 41.6433 19.0572 41.6433 20 41.6433L34 41.6433C34.9428 41.6433 35.4142 41.6433 35.7071 41.9361C36 42.229 36 42.7004 36 43.6433L36 57.6433C36 58.5861 36 59.0575 35.7071 59.3504C35.4142 59.6433 34.9428 59.6432 34 59.6433L20 59.6432C19.0572 59.6433 18.5858 59.6432 18.2929 59.3504C18 59.0575 18 58.5861 18 57.6433L18 43.6433Z"/>
</mask>
<path fill-rule="evenodd" clip-rule="evenodd" d="M47 39.0432C47 40.2286 46.7545 41.3566 46.3115 42.3792C44.1892 37.4262 40.217 33.4541 35.264 31.3318C36.2866 30.8888 37.4146 30.6432 38.6 30.6432C43.2392 30.6432 47 34.4041 47 39.0432ZM15.4001 30.6432C16.5854 30.6432 17.7135 30.8888 18.7361 31.3318C13.783 33.4541 9.81091 37.4262 7.68858 42.3793C7.24559 41.3567 7.00005 40.2286 7.00005 39.0432C7.00005 34.4041 10.7609 30.6432 15.4001 30.6432ZM46.3115 58.9073C44.1892 63.8603 40.217 67.8324 35.264 69.9547C36.2866 70.3977 37.4146 70.6433 38.6 70.6433C43.2392 70.6433 47 66.8824 47 62.2433C47 61.0579 46.7545 59.9299 46.3115 58.9073ZM7.00005 62.2433C7.00005 61.0579 7.24559 59.9298 7.68858 58.9072C9.81091 63.8603 13.783 67.8324 18.7361 69.9547C17.7135 70.3977 16.5854 70.6433 15.4001 70.6433C10.7609 70.6433 7.00005 66.8824 7.00005 62.2433ZM23.2537 35.6432C22.2615 35.643 21.2404 35.6429 20.3657 35.7143C19.3895 35.7941 18.1643 35.9872 16.9141 36.6242C15.2207 37.487 13.8438 38.8639 12.981 40.5573C12.344 41.8075 12.1509 43.0327 12.0711 44.0089C11.9997 44.8837 11.9998 45.9047 12 46.8969L12 54.3895C11.9998 55.3817 11.9997 56.4028 12.0711 57.2776C12.1509 58.2538 12.344 59.479 12.981 60.7291C13.8438 62.4226 15.2207 63.7994 16.9141 64.6623C18.1643 65.2993 19.3895 65.4924 20.3657 65.5721C21.2405 65.6436 22.2615 65.6434 23.2537 65.6432H30.7463C31.7385 65.6434 32.7596 65.6436 33.6344 65.5721C34.6106 65.4924 35.8358 65.2993 37.086 64.6623C38.7794 63.7994 40.1562 62.4226 41.0191 60.7291C41.6561 59.479 41.8492 58.2538 41.9289 57.2776C42.0004 56.4028 42.0002 55.3817 42.0001 54.3895L42.0001 46.8969C42.0002 45.9047 42.0004 44.8837 41.9289 44.0089C41.8492 43.0327 41.6561 41.8075 41.0191 40.5573C40.1562 38.8639 38.7794 37.487 37.086 36.6242C35.8358 35.9872 34.6106 35.7941 33.6344 35.7143C32.7596 35.6429 31.7385 35.643 30.7463 35.6432L23.2538 35.6432L23.2537 35.6432ZM18 43.6433C18 42.7004 18 42.229 18.2929 41.9361C18.5858 41.6433 19.0572 41.6433 20 41.6433L34 41.6433C34.9428 41.6433 35.4142 41.6433 35.7071 41.9361C36 42.229 36 42.7004 36 43.6433L36 57.6433C36 58.5861 36 59.0575 35.7071 59.3504C35.4142 59.6433 34.9428 59.6432 34 59.6433L20 59.6432C19.0572 59.6433 18.5858 59.6432 18.2929 59.3504C18 59.0575 18 58.5861 18 57.6433L18 43.6433Z" fill="url(#paint0_radial_92_83)" style=""/>
<path d="M46.3115 42.3792L44.9327 42.97L46.304 46.1702L47.6879 42.9755L46.3115 42.3792ZM47 39.0432L48.5 39.0432L48.5 39.0432L47 39.0432ZM35.264 31.3318L34.6678 29.9554L31.473 31.3393L34.6732 32.7105L35.264 31.3318ZM38.6 30.6432L38.6 29.1432L38.6 29.1432V30.6432ZM18.7361 31.3318L19.3269 32.7105L22.527 31.3393L19.3323 29.9554L18.7361 31.3318ZM15.4001 30.6432L15.4001 29.1432L15.4001 29.1432L15.4001 30.6432ZM7.68858 42.3793L6.31218 42.9755L7.6961 46.1702L9.06734 42.9701L7.68858 42.3793ZM7.00005 39.0432L5.50005 39.0432L5.50005 39.0432L7.00005 39.0432ZM35.264 69.9547L34.6732 68.576L31.473 69.9472L34.6677 71.3311L35.264 69.9547ZM46.3115 58.9073L47.6879 58.311L46.304 55.1163L44.9327 58.3165L46.3115 58.9073ZM47 62.2433L48.5 62.2433L48.5 62.2433L47 62.2433ZM7.68858 58.9072L9.06734 58.3164L7.69611 55.1163L6.31218 58.311L7.68858 58.9072ZM7.00005 62.2433L5.50005 62.2433L5.50005 62.2433L7.00005 62.2433ZM18.7361 69.9547L19.3323 71.3311L22.527 69.9472L19.3269 68.576L18.7361 69.9547ZM15.4001 70.6433L15.4001 69.1433L15.4001 69.1433L15.4001 70.6433ZM20.3657 35.7143L20.4878 37.2093L20.4878 37.2093L20.3657 35.7143ZM23.2537 35.6432L23.3418 34.1458L23.2979 34.1432L23.2539 34.1432L23.2537 35.6432ZM16.9141 36.6242L17.5951 37.9607L17.5951 37.9607L16.9141 36.6242ZM12.981 40.5573L14.3175 41.2383L14.3175 41.2383L12.981 40.5573ZM12.0711 44.0089L13.5662 44.131L13.5662 44.131L12.0711 44.0089ZM12 46.8969L13.5 46.8969L13.5 46.8967L12 46.8969ZM12 54.3895L13.5 54.3898L13.5 54.3895L12 54.3895ZM12.0711 57.2776L13.5662 57.1554L13.5662 57.1554L12.0711 57.2776ZM12.981 60.7291L14.3175 60.0482L14.3175 60.0482L12.981 60.7291ZM16.9141 64.6623L16.2331 65.9988L16.2331 65.9988L16.9141 64.6623ZM20.3657 65.5721L20.4878 64.0771L20.4878 64.0771L20.3657 65.5721ZM23.2537 65.6432L23.2537 64.1432L23.2535 64.1432L23.2537 65.6432ZM30.7463 65.6432L30.7466 64.1432H30.7463V65.6432ZM33.6344 65.5721L33.5122 64.0771L33.5122 64.0771L33.6344 65.5721ZM37.086 64.6623L36.405 63.3258L36.405 63.3258L37.086 64.6623ZM41.0191 60.7291L39.6826 60.0482L39.6826 60.0482L41.0191 60.7291ZM41.9289 57.2776L40.4339 57.1554L40.4339 57.1554L41.9289 57.2776ZM42.0001 54.3895L40.5001 54.3895L40.5001 54.3898L42.0001 54.3895ZM42.0001 46.8969L40.5001 46.8967L40.5001 46.8969L42.0001 46.8969ZM41.9289 44.0089L43.424 43.8867L43.424 43.8867L41.9289 44.0089ZM41.0191 40.5573L39.6826 41.2383L39.6826 41.2383L41.0191 40.5573ZM37.086 36.6242L36.405 37.9607L36.405 37.9607L37.086 36.6242ZM33.6344 35.7143L33.7565 34.2193L33.7565 34.2193L33.6344 35.7143ZM30.7463 35.6432L30.7463 37.1432L30.7466 37.1432L30.7463 35.6432ZM23.2538 35.6432L23.1657 37.1406L23.2097 37.1432L23.2538 37.1432L23.2538 35.6432ZM18 43.6433L16.5 43.6433L16.5 43.6433L18 43.6433ZM20 41.6433L20 40.1433L20 40.1433L20 41.6433ZM34 41.6433L34 43.1433L34 43.1433L34 41.6433ZM35.7071 41.9361L36.7678 40.8755L36.7678 40.8755L35.7071 41.9361ZM36 43.6433L34.5 43.6432L34.5 43.6433L36 43.6433ZM36 57.6433L37.5 57.6433L37.5 57.6433L36 57.6433ZM34 59.6433L34 61.1433L34 61.1433L34 59.6433ZM20 59.6432L20 58.1432L20 58.1432L20 59.6432ZM18.2929 59.3504L17.2322 60.411L17.2322 60.411L18.2929 59.3504ZM18 57.6433L19.5 57.6433L19.5 57.6433L18 57.6433ZM47.6879 42.9755C48.2109 41.7682 48.5 40.4375 48.5 39.0432L45.5 39.0432C45.5 40.0197 45.2981 40.9451 44.9351 41.783L47.6879 42.9755ZM34.6732 32.7105C39.2722 34.6811 42.9621 38.3711 44.9327 42.97L47.6903 41.7884C45.4162 36.4813 41.1619 32.227 35.8548 29.953L34.6732 32.7105ZM38.6 29.1432C37.2057 29.1432 35.875 29.4324 34.6678 29.9554L35.8602 32.7082C36.6982 32.3452 37.6235 32.1432 38.6 32.1432V29.1432ZM48.5 39.0432C48.5 33.5756 44.0676 29.1432 38.6 29.1432L38.6 32.1432C42.4108 32.1432 45.5 35.2325 45.5 39.0432L48.5 39.0432ZM19.3323 29.9554C18.125 29.4324 16.7944 29.1432 15.4001 29.1432L15.4001 32.1432C16.3765 32.1432 17.3019 32.3452 18.1398 32.7082L19.3323 29.9554ZM9.06734 42.9701C11.0379 38.3711 14.7279 34.6811 19.3269 32.7105L18.1453 29.953C12.8382 32.2271 8.58388 36.4813 6.30982 41.7885L9.06734 42.9701ZM5.50005 39.0432C5.50005 40.4375 5.78918 41.7682 6.31218 42.9755L9.06498 41.783C8.702 40.9451 8.50005 40.0197 8.50005 39.0432L5.50005 39.0432ZM15.4001 29.1432C9.93243 29.1432 5.50005 33.5756 5.50005 39.0432L8.50005 39.0432C8.50005 35.2325 11.5893 32.1432 15.4001 32.1432L15.4001 29.1432ZM35.8548 71.3335C41.1619 69.0595 45.4162 64.8052 47.6903 59.4981L44.9327 58.3165C42.9621 62.9154 39.2721 66.6054 34.6732 68.576L35.8548 71.3335ZM38.6 69.1433C37.6235 69.1433 36.6982 68.9413 35.8602 68.5783L34.6677 71.3311C35.875 71.8541 37.2057 72.1433 38.6 72.1433V69.1433ZM45.5 62.2433C45.5 66.054 42.4108 69.1433 38.6 69.1433V72.1433C44.0676 72.1433 48.5 67.7109 48.5 62.2433L45.5 62.2433ZM44.9351 59.5035C45.2981 60.3414 45.5 61.2668 45.5 62.2433H48.5C48.5 60.849 48.2109 59.5183 47.6879 58.311L44.9351 59.5035ZM6.31218 58.311C5.78918 59.5183 5.50005 60.849 5.50005 62.2433L8.50005 62.2433C8.50005 61.2668 8.702 60.3414 9.06498 59.5035L6.31218 58.311ZM19.3269 68.576C14.7279 66.6054 11.0379 62.9154 9.06734 58.3164L6.30982 59.498C8.58388 64.8051 12.8382 69.0594 18.1453 71.3335L19.3269 68.576ZM15.4001 72.1433C16.7944 72.1433 18.125 71.8541 19.3323 71.3311L18.1398 68.5783C17.3019 68.9413 16.3765 69.1433 15.4001 69.1433L15.4001 72.1433ZM5.50005 62.2433C5.50005 67.7109 9.93243 72.1433 15.4001 72.1433L15.4001 69.1433C11.5893 69.1433 8.50005 66.054 8.50005 62.2433L5.50005 62.2433ZM20.4878 37.2093C21.2893 37.1439 22.2446 37.143 23.2534 37.1432L23.2539 34.1432C22.2784 34.143 21.1916 34.1419 20.2435 34.2193L20.4878 37.2093ZM17.5951 37.9607C18.599 37.4492 19.6052 37.2815 20.4878 37.2093L20.2435 34.2193C19.1738 34.3067 17.7296 34.5252 16.2331 35.2877L17.5951 37.9607ZM14.3175 41.2383C15.0365 39.8271 16.1839 38.6797 17.5951 37.9607L16.2331 35.2877C14.2574 36.2943 12.6511 37.9006 11.6445 39.8763L14.3175 41.2383ZM13.5662 44.131C13.6383 43.2484 13.806 42.2422 14.3175 41.2383L11.6445 39.8763C10.882 41.3727 10.6635 42.817 10.5761 43.8867L13.5662 44.131ZM13.5 46.8967C13.4998 45.8878 13.5007 44.9325 13.5662 44.131L10.5761 43.8867C10.4987 44.8348 10.4999 45.9217 10.5 46.8972L13.5 46.8967ZM13.5 54.3895L13.5 46.8969L10.5 46.8969L10.5 54.3895L13.5 54.3895ZM13.5662 57.1554C13.5007 56.3539 13.4998 55.3986 13.5 54.3898L10.5 54.3892C10.4999 55.3648 10.4987 56.4517 10.5761 57.3997L13.5662 57.1554ZM14.3175 60.0482C13.806 59.0442 13.6383 58.0381 13.5662 57.1554L10.5761 57.3997C10.6635 58.4695 10.882 59.9137 11.6445 61.4101L14.3175 60.0482ZM17.5951 63.3258C16.1839 62.6067 15.0365 61.4594 14.3175 60.0482L11.6445 61.4101C12.6511 63.3858 14.2574 64.9921 16.2331 65.9988L17.5951 63.3258ZM20.4878 64.0771C19.6052 64.005 18.599 63.8373 17.5951 63.3258L16.2331 65.9988C17.7296 66.7613 19.1738 66.9797 20.2435 67.0671L20.4878 64.0771ZM23.2535 64.1432C22.2446 64.1434 21.2893 64.1426 20.4878 64.0771L20.2435 67.0671C21.1916 67.1446 22.2785 67.1434 23.254 67.1432L23.2535 64.1432ZM30.7463 64.1432H23.2537L23.2537 67.1432H30.7463V64.1432ZM33.5122 64.0771C32.7107 64.1426 31.7555 64.1434 30.7466 64.1432L30.7461 67.1432C31.7216 67.1434 32.8085 67.1446 33.7565 67.0671L33.5122 64.0771ZM36.405 63.3258C35.4011 63.8373 34.3949 64.005 33.5122 64.0771L33.7565 67.0671C34.8263 66.9797 36.2705 66.7613 37.7669 65.9988L36.405 63.3258ZM39.6826 60.0482C38.9635 61.4594 37.8162 62.6067 36.405 63.3258L37.7669 65.9988C39.7426 64.9921 41.3489 63.3858 42.3556 61.4101L39.6826 60.0482ZM40.4339 57.1554C40.3618 58.0381 40.1941 59.0442 39.6826 60.0482L42.3556 61.4101C43.1181 59.9137 43.3366 58.4695 43.424 57.3997L40.4339 57.1554ZM40.5001 54.3898C40.5002 55.3986 40.4994 56.3539 40.4339 57.1554L43.424 57.3997C43.5014 56.4517 43.5002 55.3648 43.5001 54.3893L40.5001 54.3898ZM40.5001 46.8969L40.5001 54.3895L43.5001 54.3895L43.5001 46.8969L40.5001 46.8969ZM40.4339 44.131C40.4994 44.9325 40.5002 45.8878 40.5001 46.8967L43.5001 46.8972C43.5002 45.9217 43.5014 44.8348 43.424 43.8867L40.4339 44.131ZM39.6826 41.2383C40.1941 42.2422 40.3618 43.2484 40.4339 44.131L43.424 43.8867C43.3366 42.817 43.1181 41.3727 42.3556 39.8763L39.6826 41.2383ZM36.405 37.9607C37.8162 38.6797 38.9635 39.8271 39.6826 41.2383L42.3556 39.8763C41.3489 37.9006 39.7426 36.2943 37.7669 35.2877L36.405 37.9607ZM33.5122 37.2093C34.3949 37.2815 35.4011 37.4492 36.405 37.9607L37.7669 35.2877C36.2705 34.5252 34.8263 34.3067 33.7565 34.2193L33.5122 37.2093ZM30.7466 37.1432C31.7554 37.143 32.7107 37.1439 33.5122 37.2093L33.7565 34.2193C32.8085 34.1418 31.7216 34.143 30.7461 34.1432L30.7466 37.1432ZM23.2538 37.1432L30.7463 37.1432L30.7463 34.1432L23.2538 34.1432L23.2538 37.1432ZM23.1656 37.1406L23.1657 37.1406L23.3418 34.1458L23.3418 34.1458L23.1656 37.1406ZM17.2322 40.8755C16.7606 41.3471 16.609 41.9075 16.55 42.3461C16.4968 42.7416 16.5 43.2143 16.5 43.6433L19.5 43.6433C19.5 43.402 19.5001 43.2163 19.5041 43.0578C19.5081 42.8985 19.5155 42.8038 19.5232 42.7458C19.5309 42.6889 19.534 42.708 19.5108 42.7646C19.4826 42.8331 19.4313 42.9191 19.3536 42.9968L17.2322 40.8755ZM20 40.1433C19.571 40.1433 19.0984 40.1401 18.7029 40.1932C18.2642 40.2522 17.7038 40.4039 17.2322 40.8755L19.3536 42.9968C19.2759 43.0745 19.1899 43.1258 19.1213 43.154C19.0648 43.1773 19.0456 43.1741 19.1026 43.1665C19.1605 43.1587 19.2553 43.1514 19.4146 43.1473C19.5731 43.1433 19.7587 43.1433 20 43.1433L20 40.1433ZM34 40.1433L20 40.1433L20 43.1433L34 43.1433L34 40.1433ZM36.7678 40.8755C36.2962 40.4039 35.7358 40.2522 35.2971 40.1932C34.9016 40.1401 34.429 40.1433 34 40.1433L34 43.1433C34.2413 43.1433 34.4269 43.1434 34.5855 43.1474C34.7448 43.1514 34.8395 43.1587 34.8974 43.1665C34.9544 43.1741 34.9352 43.1773 34.8787 43.154C34.8102 43.1258 34.7242 43.0745 34.6465 42.9968L36.7678 40.8755ZM37.5 43.6433C37.5 43.2143 37.5032 42.7416 37.45 42.3461C37.391 41.9075 37.2394 41.3471 36.7678 40.8755L34.6464 42.9968C34.5687 42.9191 34.5174 42.8331 34.4892 42.7646C34.466 42.708 34.4691 42.6889 34.4768 42.7458C34.4846 42.8038 34.4919 42.8985 34.4959 43.0578C34.4999 43.2163 34.5 43.402 34.5 43.6432L37.5 43.6433ZM37.5 57.6433L37.5 43.6433L34.5 43.6433L34.5 57.6433L37.5 57.6433ZM36.7678 60.411C37.2394 59.9394 37.391 59.379 37.45 58.9404C37.5032 58.5449 37.5 58.0722 37.5 57.6433L34.5 57.6432C34.5 57.8845 34.4999 58.0702 34.4959 58.2287C34.4919 58.388 34.4846 58.4827 34.4768 58.5407C34.4691 58.5976 34.466 58.5785 34.4893 58.5219C34.5174 58.4534 34.5688 58.3674 34.6465 58.2897L36.7678 60.411ZM34 61.1433C34.429 61.1433 34.9017 61.1464 35.2971 61.0933C35.7358 61.0343 36.2962 60.8826 36.7678 60.411L34.6465 58.2897C34.7241 58.212 34.8102 58.1607 34.8787 58.1325C34.9352 58.1092 34.9544 58.1124 34.8974 58.12C34.8395 58.1278 34.7448 58.1351 34.5855 58.1392C34.4269 58.1432 34.2413 58.1433 34 58.1433L34 61.1433ZM20 61.1432L34 61.1433L34 58.1433L20 58.1432L20 61.1432ZM17.2322 60.411C17.7038 60.8826 18.2642 61.0343 18.7029 61.0933C19.0984 61.1464 19.571 61.1433 20 61.1432L20 58.1432C19.7587 58.1433 19.5731 58.1432 19.4146 58.1392C19.2553 58.1351 19.1605 58.1278 19.1026 58.12C19.0456 58.1124 19.0648 58.1092 19.1213 58.1325C19.1899 58.1607 19.2759 58.212 19.3536 58.2897L17.2322 60.411ZM16.5 57.6433C16.5 58.0723 16.4968 58.5449 16.55 58.9404C16.609 59.379 16.7606 59.9394 17.2322 60.411L19.3536 58.2897C19.4313 58.3674 19.4826 58.4534 19.5108 58.5219C19.534 58.5785 19.5309 58.5976 19.5232 58.5407C19.5155 58.4827 19.5081 58.388 19.5041 58.2287C19.5001 58.0702 19.5 57.8845 19.5 57.6433L16.5 57.6433ZM16.5 43.6433L16.5 57.6433L19.5 57.6433L19.5 43.6433L16.5 43.6433Z" fill="url(#paint1_linear_92_83)" style="" mask="url(#path-1-inside-1_92_83)"/>
<path d="M81.752 73.6672C71.256 73.6672 64.28 65.8592 64.28 55.2352C64.28 44.6752 71.256 36.9952 81.752 36.9952C88.984 36.9952 94.424 40.5792 97.368 47.1712L90.456 50.2432C88.728 46.4672 85.848 43.9712 81.752 43.9712C75.672 43.9712 71.896 48.8992 71.896 55.2352C71.896 61.6352 75.608 66.6272 81.752 66.6272C85.912 66.6272 88.792 64.0672 90.456 60.2272L97.432 63.2352C94.488 69.8912 89.048 73.6672 81.752 73.6672ZM106.127 72.6432C102.223 72.6432 100.239 70.1472 100.239 66.9472V26.2432H107.919V64.8352C107.919 65.2832 108.175 65.5392 108.623 65.5392H113.551V72.6432H106.127ZM126.535 73.4112C120.007 73.4112 115.335 68.9952 115.335 62.2112C115.335 55.1072 120.455 50.4992 127.303 50.4992C130.247 50.4992 133.319 51.4592 134.919 53.7632H135.047V49.6032C135.047 46.0832 133.127 43.8432 130.055 43.8432C127.815 43.8432 126.087 44.9312 125.127 46.7872L118.599 43.3952C121.159 38.9792 125.703 36.9952 130.887 36.9952C138.311 36.9952 142.727 41.6032 142.727 49.2192V72.6432H135.047V68.6752H134.919C133.127 71.8112 129.863 73.4112 126.535 73.4112ZM128.903 67.6512C132.487 67.6512 135.175 65.0272 135.175 61.4432C135.175 57.9232 132.487 55.6832 128.903 55.6832C125.383 55.6832 122.887 58.1792 122.887 61.6992C122.887 65.2832 125.383 67.6512 128.903 67.6512ZM163.44 73.6672C152.944 73.6672 145.968 65.8592 145.968 55.2352C145.968 44.6752 152.944 36.9952 163.44 36.9952C170.672 36.9952 176.112 40.5792 179.056 47.1712L172.144 50.2432C170.416 46.4672 167.536 43.9712 163.44 43.9712C157.36 43.9712 153.584 48.8992 153.584 55.2352C153.584 61.6352 157.296 66.6272 163.44 66.6272C167.6 66.6272 170.48 64.0672 172.144 60.2272L179.12 63.2352C176.176 69.8912 170.736 73.6672 163.44 73.6672ZM181.926 72.6432V26.1792H189.606V60.9952H189.798L204.71 38.0192H213.606V38.1472L203.494 53.5072L215.27 72.5152V72.6432H206.566L197.926 59.1392L189.03 72.6432H181.926Z" fill="url(#paint2_radial_92_83)" style=""/>
<path d="M0 2H440" stroke="url(#paint3_linear_92_83)" style="" stroke-width="4"/>
<defs>
<radialGradient id="paint0_radial_92_83" cx="0" cy="0" r="1" gradientUnits="userSpaceOnUse" gradientTransform="translate(-19.728 -7.01119) rotate(49.0919) scale(245.043 48.391)">
<stop stop-color="#FF00D2" stop-opacity="0.9" style="stop-color:#FF00D2;stop-color:color(display-p3 1.0000 0.0000 0.8235);stop-opacity:0.9;"/>
<stop offset="1" stop-color="#FF00D2" stop-opacity="0.5" style="stop-color:#FF00D2;stop-color:color(display-p3 1.0000 0.0000 0.8235);stop-opacity:0.5;"/>
</radialGradient>
<linearGradient id="paint1_linear_92_83" x1="44.5397" y1="68.1829" x2="9.46034" y2="33.1036" gradientUnits="userSpaceOnUse">
<stop stop-color="#FF00D2" stop-opacity="0.5" style="stop-color:#FF00D2;stop-color:color(display-p3 1.0000 0.0000 0.8235);stop-opacity:0.5;"/>
<stop offset="1" stop-color="#FF00D2" style="stop-color:#FF00D2;stop-color:color(display-p3 1.0000 0.0000 0.8235);stop-opacity:1;"/>
</linearGradient>
<radialGradient id="paint2_radial_92_83" cx="0" cy="0" r="1" gradientUnits="userSpaceOnUse" gradientTransform="translate(63 35.3705) scale(168 183.273)">
<stop stop-opacity="0.9" style="stop-color:black;stop-opacity:0.9;"/>
<stop offset="1" stop-opacity="0.75" style="stop-color:black;stop-opacity:0.75;"/>
</radialGradient>
<linearGradient id="paint3_linear_92_83" x1="0" y1="2.5" x2="440" y2="2.5" gradientUnits="userSpaceOnUse">
<stop stop-opacity="0.5" style="stop-color:black;stop-opacity:0.5;"/>
<stop offset="1" style="stop-color:black;stop-opacity:1;"/>
</linearGradient>
</defs>
</svg>
