<svg width="440" height="83" viewBox="0 0 440 83" fill="none" xmlns="http://www.w3.org/2000/svg">
<mask id="path-1-inside-1_92_80" fill="white">
<path fill-rule="evenodd" clip-rule="evenodd" d="M47 39.4C47 40.5854 46.7545 41.7134 46.3115 42.736C44.1892 37.7829 40.217 33.8108 35.264 31.6885C36.2866 31.2455 37.4146 31 38.6 31C43.2392 31 47 34.7608 47 39.4ZM15.4001 31C16.5854 31 17.7135 31.2455 18.7361 31.6885C13.783 33.8108 9.81091 37.783 7.68858 42.736C7.24559 41.7134 7.00005 40.5854 7.00005 39.4C7.00005 34.7608 10.7609 31 15.4001 31ZM46.3115 59.264C44.1892 64.2171 40.217 68.1892 35.264 70.3115C36.2866 70.7545 37.4146 71 38.6 71C43.2392 71 47 67.2392 47 62.6C47 61.4146 46.7545 60.2866 46.3115 59.264ZM7.00005 62.6C7.00005 61.4146 7.24559 60.2866 7.68858 59.264C9.81091 64.217 13.783 68.1891 18.7361 70.3115C17.7135 70.7545 16.5854 71 15.4001 71C10.7609 71 7.00005 67.2392 7.00005 62.6ZM23.2537 36C22.2615 35.9998 21.2404 35.9996 20.3657 36.0711C19.3895 36.1508 18.1643 36.3439 16.9141 36.9809C15.2207 37.8438 13.8438 39.2206 12.981 40.9141C12.344 42.1642 12.1509 43.3894 12.0711 44.3656C11.9997 45.2404 11.9998 46.2615 12 47.2537L12 54.7463C11.9998 55.7385 11.9997 56.7595 12.0711 57.6343C12.1509 58.6105 12.344 59.8357 12.981 61.0859C13.8438 62.7793 15.2207 64.1562 16.9141 65.019C18.1643 65.656 19.3895 65.8491 20.3657 65.9289C21.2405 66.0003 22.2615 66.0002 23.2537 66H30.7463C31.7385 66.0002 32.7596 66.0003 33.6344 65.9289C34.6106 65.8491 35.8358 65.656 37.086 65.019C38.7794 64.1562 40.1562 62.7793 41.0191 61.0859C41.6561 59.8357 41.8492 58.6105 41.9289 57.6343C42.0004 56.7595 42.0002 55.7385 42.0001 54.7463L42.0001 47.2537C42.0002 46.2615 42.0004 45.2404 41.9289 44.3656C41.8492 43.3894 41.6561 42.1642 41.0191 40.9141C40.1562 39.2206 38.7794 37.8438 37.086 36.9809C35.8358 36.3439 34.6106 36.1508 33.6344 36.0711C32.7596 35.9996 31.7385 35.9998 30.7463 36L23.2538 36L23.2537 36ZM18 44C18 43.0572 18 42.5858 18.2929 42.2929C18.5858 42 19.0572 42 20 42L34 42C34.9428 42 35.4142 42 35.7071 42.2929C36 42.5858 36 43.0572 36 44L36 58C36 58.9428 36 59.4142 35.7071 59.7071C35.4142 60 34.9428 60 34 60L20 60C19.0572 60 18.5858 60 18.2929 59.7071C18 59.4142 18 58.9428 18 58L18 44Z"/>
</mask>
<path fill-rule="evenodd" clip-rule="evenodd" d="M47 39.4C47 40.5854 46.7545 41.7134 46.3115 42.736C44.1892 37.7829 40.217 33.8108 35.264 31.6885C36.2866 31.2455 37.4146 31 38.6 31C43.2392 31 47 34.7608 47 39.4ZM15.4001 31C16.5854 31 17.7135 31.2455 18.7361 31.6885C13.783 33.8108 9.81091 37.783 7.68858 42.736C7.24559 41.7134 7.00005 40.5854 7.00005 39.4C7.00005 34.7608 10.7609 31 15.4001 31ZM46.3115 59.264C44.1892 64.2171 40.217 68.1892 35.264 70.3115C36.2866 70.7545 37.4146 71 38.6 71C43.2392 71 47 67.2392 47 62.6C47 61.4146 46.7545 60.2866 46.3115 59.264ZM7.00005 62.6C7.00005 61.4146 7.24559 60.2866 7.68858 59.264C9.81091 64.217 13.783 68.1891 18.7361 70.3115C17.7135 70.7545 16.5854 71 15.4001 71C10.7609 71 7.00005 67.2392 7.00005 62.6ZM23.2537 36C22.2615 35.9998 21.2404 35.9996 20.3657 36.0711C19.3895 36.1508 18.1643 36.3439 16.9141 36.9809C15.2207 37.8438 13.8438 39.2206 12.981 40.9141C12.344 42.1642 12.1509 43.3894 12.0711 44.3656C11.9997 45.2404 11.9998 46.2615 12 47.2537L12 54.7463C11.9998 55.7385 11.9997 56.7595 12.0711 57.6343C12.1509 58.6105 12.344 59.8357 12.981 61.0859C13.8438 62.7793 15.2207 64.1562 16.9141 65.019C18.1643 65.656 19.3895 65.8491 20.3657 65.9289C21.2405 66.0003 22.2615 66.0002 23.2537 66H30.7463C31.7385 66.0002 32.7596 66.0003 33.6344 65.9289C34.6106 65.8491 35.8358 65.656 37.086 65.019C38.7794 64.1562 40.1562 62.7793 41.0191 61.0859C41.6561 59.8357 41.8492 58.6105 41.9289 57.6343C42.0004 56.7595 42.0002 55.7385 42.0001 54.7463L42.0001 47.2537C42.0002 46.2615 42.0004 45.2404 41.9289 44.3656C41.8492 43.3894 41.6561 42.1642 41.0191 40.9141C40.1562 39.2206 38.7794 37.8438 37.086 36.9809C35.8358 36.3439 34.6106 36.1508 33.6344 36.0711C32.7596 35.9996 31.7385 35.9998 30.7463 36L23.2538 36L23.2537 36ZM18 44C18 43.0572 18 42.5858 18.2929 42.2929C18.5858 42 19.0572 42 20 42L34 42C34.9428 42 35.4142 42 35.7071 42.2929C36 42.5858 36 43.0572 36 44L36 58C36 58.9428 36 59.4142 35.7071 59.7071C35.4142 60 34.9428 60 34 60L20 60C19.0572 60 18.5858 60 18.2929 59.7071C18 59.4142 18 58.9428 18 58L18 44Z" fill="url(#paint0_radial_92_80)" style=""/>
<path d="M46.3115 42.736L44.9327 43.3267L46.304 46.5269L47.6879 43.3322L46.3115 42.736ZM47 39.4L48.5 39.4L48.5 39.4L47 39.4ZM35.264 31.6885L34.6678 30.3121L31.473 31.696L34.6732 33.0673L35.264 31.6885ZM38.6 31L38.6 29.5L38.6 29.5V31ZM18.7361 31.6885L19.3269 33.0673L22.527 31.696L19.3323 30.3121L18.7361 31.6885ZM15.4001 31L15.4001 29.5L15.4001 29.5L15.4001 31ZM7.68858 42.736L6.31218 43.3323L7.6961 46.527L9.06734 43.3268L7.68858 42.736ZM7.00005 39.4L5.50005 39.4L5.50005 39.4L7.00005 39.4ZM35.264 70.3115L34.6732 68.9327L31.473 70.304L34.6677 71.6879L35.264 70.3115ZM46.3115 59.264L47.6879 58.6678L46.304 55.4731L44.9327 58.6732L46.3115 59.264ZM47 62.6L48.5 62.6L48.5 62.6L47 62.6ZM7.68858 59.264L9.06734 58.6732L7.69611 55.473L6.31218 58.6677L7.68858 59.264ZM7.00005 62.6L5.50005 62.6L5.50005 62.6L7.00005 62.6ZM18.7361 70.3115L19.3323 71.6879L22.527 70.3039L19.3269 68.9327L18.7361 70.3115ZM15.4001 71L15.4001 69.5L15.4001 69.5L15.4001 71ZM20.3657 36.0711L20.4878 37.5661L20.4878 37.5661L20.3657 36.0711ZM23.2537 36L23.3418 34.5025L23.2979 34.5L23.2539 34.5L23.2537 36ZM16.9141 36.9809L16.2331 35.6444L16.2331 35.6444L16.9141 36.9809ZM12.981 40.9141L11.6445 40.2331L11.6445 40.2331L12.981 40.9141ZM12.0711 44.3656L13.5662 44.4878L13.5662 44.4878L12.0711 44.3656ZM12 47.2537L13.5 47.2537L13.5 47.2534L12 47.2537ZM12 54.7463L13.5 54.7465L13.5 54.7463L12 54.7463ZM12.0711 57.6343L13.5662 57.5122L13.5662 57.5122L12.0711 57.6343ZM12.981 61.0859L14.3175 60.4049L14.3175 60.4049L12.981 61.0859ZM16.9141 65.019L16.2331 66.3555L16.2331 66.3555L16.9141 65.019ZM20.3657 65.9289L20.4878 64.4339L20.4878 64.4339L20.3657 65.9289ZM23.2537 66L23.2537 64.5L23.2535 64.5L23.2537 66ZM30.7463 66L30.7466 64.5H30.7463V66ZM33.6344 65.9289L33.5122 64.4339L33.5122 64.4339L33.6344 65.9289ZM37.086 65.019L36.405 63.6825L36.405 63.6825L37.086 65.019ZM41.0191 61.0859L39.6826 60.4049L39.6826 60.4049L41.0191 61.0859ZM41.9289 57.6343L40.4339 57.5122L40.4339 57.5122L41.9289 57.6343ZM42.0001 54.7463L40.5001 54.7463L40.5001 54.7465L42.0001 54.7463ZM42.0001 47.2537L40.5001 47.2534L40.5001 47.2537L42.0001 47.2537ZM41.9289 44.3656L43.424 44.2435L43.424 44.2435L41.9289 44.3656ZM41.0191 40.9141L39.6826 41.595L39.6826 41.595L41.0191 40.9141ZM37.086 36.9809L36.405 38.3174L36.405 38.3174L37.086 36.9809ZM33.6344 36.0711L33.7565 34.5761L33.7565 34.5761L33.6344 36.0711ZM30.7463 36L30.7463 37.5L30.7466 37.5L30.7463 36ZM23.2538 36L23.1657 37.4974L23.2097 37.5L23.2538 37.5L23.2538 36ZM18 44L16.5 44L16.5 44L18 44ZM20 42L20 40.5L20 40.5L20 42ZM34 42L34 43.5L34 43.5L34 42ZM35.7071 42.2929L36.7678 41.2322L36.7678 41.2322L35.7071 42.2929ZM36 44L34.5 44L34.5 44L36 44ZM36 58L37.5 58L37.5 58L36 58ZM34 60L34 61.5L34 61.5L34 60ZM20 60L20 58.5L20 58.5L20 60ZM18.2929 59.7071L17.2322 60.7678L17.2322 60.7678L18.2929 59.7071ZM18 58L19.5 58L19.5 58L18 58ZM47.6879 43.3322C48.2109 42.1249 48.5 40.7943 48.5 39.4L45.5 39.4C45.5 40.3765 45.2981 41.3018 44.9351 42.1397L47.6879 43.3322ZM34.6732 33.0673C39.2722 35.0379 42.9621 38.7278 44.9327 43.3267L47.6903 42.1452C45.4162 36.8381 41.1619 32.5838 35.8548 30.3098L34.6732 33.0673ZM38.6 29.5C37.2057 29.5 35.875 29.7891 34.6678 30.3121L35.8602 33.0649C36.6982 32.7019 37.6235 32.5 38.6 32.5V29.5ZM48.5 39.4C48.5 33.9324 44.0676 29.5 38.6 29.5L38.6 32.5C42.4108 32.5 45.5 35.5892 45.5 39.4L48.5 39.4ZM19.3323 30.3121C18.125 29.7891 16.7944 29.5 15.4001 29.5L15.4001 32.5C16.3765 32.5 17.3019 32.7019 18.1398 33.0649L19.3323 30.3121ZM9.06734 43.3268C11.0379 38.7279 14.7279 35.0379 19.3269 33.0673L18.1453 30.3098C12.8382 32.5838 8.58388 36.8381 6.30982 42.1452L9.06734 43.3268ZM5.50005 39.4C5.50005 40.7943 5.78918 42.125 6.31218 43.3323L9.06498 42.1398C8.702 41.3019 8.50005 40.3765 8.50005 39.4L5.50005 39.4ZM15.4001 29.5C9.93243 29.5 5.50005 33.9324 5.50005 39.4L8.50005 39.4C8.50005 35.5892 11.5893 32.5 15.4001 32.5L15.4001 29.5ZM35.8548 71.6902C41.1619 69.4162 45.4162 65.1619 47.6903 59.8548L44.9327 58.6732C42.9621 63.2722 39.2721 66.9621 34.6732 68.9327L35.8548 71.6902ZM38.6 69.5C37.6235 69.5 36.6982 69.2981 35.8602 68.9351L34.6677 71.6879C35.875 72.2109 37.2057 72.5 38.6 72.5V69.5ZM45.5 62.6C45.5 66.4108 42.4108 69.5 38.6 69.5V72.5C44.0676 72.5 48.5 68.0676 48.5 62.6L45.5 62.6ZM44.9351 59.8603C45.2981 60.6982 45.5 61.6235 45.5 62.6H48.5C48.5 61.2057 48.2109 59.8751 47.6879 58.6678L44.9351 59.8603ZM6.31218 58.6677C5.78918 59.875 5.50005 61.2057 5.50005 62.6L8.50005 62.6C8.50005 61.6235 8.702 60.6981 9.06498 59.8602L6.31218 58.6677ZM19.3269 68.9327C14.7279 66.9621 11.0379 63.2721 9.06734 58.6732L6.30982 59.8548C8.58388 65.1619 12.8382 69.4162 18.1453 71.6902L19.3269 68.9327ZM15.4001 72.5C16.7944 72.5 18.125 72.2109 19.3323 71.6879L18.1398 68.9351C17.3019 69.2981 16.3765 69.5 15.4001 69.5L15.4001 72.5ZM5.50005 62.6C5.50005 68.0676 9.93243 72.5 15.4001 72.5L15.4001 69.5C11.5893 69.5 8.50005 66.4108 8.50005 62.6L5.50005 62.6ZM20.4878 37.5661C21.2893 37.5006 22.2446 37.4998 23.2534 37.5L23.2539 34.5C22.2784 34.4998 21.1916 34.4986 20.2435 34.5761L20.4878 37.5661ZM17.5951 38.3174C18.599 37.8059 19.6052 37.6382 20.4878 37.5661L20.2435 34.5761C19.1738 34.6635 17.7296 34.8819 16.2331 35.6444L17.5951 38.3174ZM14.3175 41.595C15.0365 40.1838 16.1839 39.0365 17.5951 38.3174L16.2331 35.6444C14.2574 36.6511 12.6511 38.2574 11.6445 40.2331L14.3175 41.595ZM13.5662 44.4878C13.6383 43.6051 13.806 42.599 14.3175 41.595L11.6445 40.2331C10.882 41.7295 10.6635 43.1737 10.5761 44.2435L13.5662 44.4878ZM13.5 47.2534C13.4998 46.2446 13.5007 45.2893 13.5662 44.4878L10.5761 44.2435C10.4987 45.1915 10.4999 46.2784 10.5 47.2539L13.5 47.2534ZM13.5 54.7463L13.5 47.2537L10.5 47.2537L10.5 54.7463L13.5 54.7463ZM13.5662 57.5122C13.5007 56.7107 13.4998 55.7554 13.5 54.7465L10.5 54.746C10.4999 55.7215 10.4987 56.8084 10.5761 57.7565L13.5662 57.5122ZM14.3175 60.4049C13.806 59.401 13.6383 58.3948 13.5662 57.5122L10.5761 57.7565C10.6635 58.8262 10.882 60.2705 11.6445 61.7669L14.3175 60.4049ZM17.5951 63.6825C16.1839 62.9635 15.0365 61.8161 14.3175 60.4049L11.6445 61.7669C12.6511 63.7426 14.2574 65.3489 16.2331 66.3555L17.5951 63.6825ZM20.4878 64.4339C19.6052 64.3617 18.599 64.194 17.5951 63.6825L16.2331 66.3555C17.7296 67.118 19.1738 67.3365 20.2435 67.4239L20.4878 64.4339ZM23.2535 64.5C22.2446 64.5002 21.2893 64.4993 20.4878 64.4339L20.2435 67.4239C21.1916 67.5013 22.2785 67.5002 23.254 67.5L23.2535 64.5ZM30.7463 64.5H23.2537L23.2537 67.5H30.7463V64.5ZM33.5122 64.4339C32.7107 64.4993 31.7555 64.5002 30.7466 64.5L30.7461 67.5C31.7216 67.5002 32.8085 67.5014 33.7565 67.4239L33.5122 64.4339ZM36.405 63.6825C35.4011 64.194 34.3949 64.3617 33.5122 64.4339L33.7565 67.4239C34.8263 67.3365 36.2705 67.118 37.7669 66.3555L36.405 63.6825ZM39.6826 60.4049C38.9635 61.8161 37.8162 62.9635 36.405 63.6825L37.7669 66.3555C39.7426 65.3489 41.3489 63.7426 42.3556 61.7669L39.6826 60.4049ZM40.4339 57.5122C40.3618 58.3948 40.1941 59.401 39.6826 60.4049L42.3556 61.7669C43.1181 60.2705 43.3366 58.8262 43.424 57.7565L40.4339 57.5122ZM40.5001 54.7465C40.5002 55.7554 40.4994 56.7107 40.4339 57.5122L43.424 57.7565C43.5014 56.8084 43.5002 55.7215 43.5001 54.746L40.5001 54.7465ZM40.5001 47.2537L40.5001 54.7463L43.5001 54.7463L43.5001 47.2537L40.5001 47.2537ZM40.4339 44.4878C40.4994 45.2893 40.5002 46.2446 40.5001 47.2534L43.5001 47.2539C43.5002 46.2784 43.5014 45.1915 43.424 44.2435L40.4339 44.4878ZM39.6826 41.595C40.1941 42.599 40.3618 43.6051 40.4339 44.4878L43.424 44.2435C43.3366 43.1737 43.1181 41.7295 42.3556 40.2331L39.6826 41.595ZM36.405 38.3174C37.8162 39.0365 38.9635 40.1838 39.6826 41.595L42.3556 40.2331C41.3489 38.2574 39.7426 36.6511 37.7669 35.6444L36.405 38.3174ZM33.5122 37.5661C34.3949 37.6382 35.4011 37.8059 36.405 38.3174L37.7669 35.6444C36.2705 34.8819 34.8263 34.6635 33.7565 34.5761L33.5122 37.5661ZM30.7466 37.5C31.7554 37.4998 32.7107 37.5006 33.5122 37.5661L33.7565 34.5761C32.8085 34.4986 31.7216 34.4998 30.7461 34.5L30.7466 37.5ZM23.2538 37.5L30.7463 37.5L30.7463 34.5L23.2538 34.5L23.2538 37.5ZM23.1656 37.4974L23.1657 37.4974L23.3418 34.5025L23.3418 34.5025L23.1656 37.4974ZM17.2322 41.2322C16.7606 41.7038 16.609 42.2642 16.55 42.7029C16.4968 43.0984 16.5 43.571 16.5 44L19.5 44C19.5 43.7587 19.5001 43.5731 19.5041 43.4145C19.5081 43.2552 19.5155 43.1605 19.5232 43.1026C19.5309 43.0456 19.534 43.0648 19.5108 43.1213C19.4826 43.1898 19.4313 43.2759 19.3536 43.3536L17.2322 41.2322ZM20 40.5C19.571 40.5 19.0984 40.4968 18.7029 40.55C18.2642 40.609 17.7038 40.7606 17.2322 41.2322L19.3536 43.3536C19.2759 43.4313 19.1899 43.4826 19.1213 43.5108C19.0648 43.534 19.0456 43.5309 19.1026 43.5232C19.1605 43.5154 19.2553 43.5081 19.4146 43.5041C19.5731 43.5001 19.7587 43.5 20 43.5L20 40.5ZM34 40.5L20 40.5L20 43.5L34 43.5L34 40.5ZM36.7678 41.2322C36.2962 40.7606 35.7358 40.609 35.2971 40.55C34.9016 40.4968 34.429 40.5 34 40.5L34 43.5C34.2413 43.5 34.4269 43.5001 34.5855 43.5041C34.7448 43.5081 34.8395 43.5155 34.8974 43.5232C34.9544 43.5309 34.9352 43.534 34.8787 43.5108C34.8102 43.4826 34.7242 43.4313 34.6465 43.3536L36.7678 41.2322ZM37.5 44C37.5 43.571 37.5032 43.0984 37.45 42.7029C37.391 42.2642 37.2394 41.7038 36.7678 41.2322L34.6464 43.3535C34.5687 43.2758 34.5174 43.1898 34.4892 43.1213C34.466 43.0648 34.4691 43.0456 34.4768 43.1026C34.4846 43.1605 34.4919 43.2553 34.4959 43.4145C34.4999 43.5731 34.5 43.7587 34.5 44L37.5 44ZM37.5 58L37.5 44L34.5 44L34.5 58L37.5 58ZM36.7678 60.7678C37.2394 60.2962 37.391 59.7358 37.45 59.2971C37.5032 58.9016 37.5 58.429 37.5 58L34.5 58C34.5 58.2413 34.4999 58.4269 34.4959 58.5855C34.4919 58.7448 34.4846 58.8395 34.4768 58.8974C34.4691 58.9544 34.466 58.9352 34.4893 58.8787C34.5174 58.8102 34.5688 58.7241 34.6465 58.6464L36.7678 60.7678ZM34 61.5C34.429 61.5 34.9017 61.5032 35.2971 61.45C35.7358 61.391 36.2962 61.2394 36.7678 60.7678L34.6465 58.6464C34.7241 58.5688 34.8102 58.5174 34.8787 58.4892C34.9352 58.466 34.9544 58.4691 34.8974 58.4768C34.8395 58.4846 34.7448 58.4919 34.5855 58.4959C34.4269 58.4999 34.2413 58.5 34 58.5L34 61.5ZM20 61.5L34 61.5L34 58.5L20 58.5L20 61.5ZM17.2322 60.7678C17.7038 61.2394 18.2642 61.391 18.7029 61.45C19.0984 61.5032 19.571 61.5 20 61.5L20 58.5C19.7587 58.5 19.5731 58.4999 19.4146 58.4959C19.2553 58.4919 19.1605 58.4846 19.1026 58.4768C19.0456 58.4691 19.0648 58.466 19.1213 58.4892C19.1899 58.5174 19.2759 58.5688 19.3536 58.6464L17.2322 60.7678ZM16.5 58C16.5 58.429 16.4968 58.9016 16.55 59.2971C16.609 59.7358 16.7606 60.2962 17.2322 60.7678L19.3536 58.6465C19.4313 58.7241 19.4826 58.8102 19.5108 58.8787C19.534 58.9352 19.5309 58.9544 19.5232 58.8974C19.5155 58.8395 19.5081 58.7448 19.5041 58.5855C19.5001 58.4269 19.5 58.2413 19.5 58L16.5 58ZM16.5 44L16.5 58L19.5 58L19.5 44L16.5 44Z" fill="url(#paint1_linear_92_80)" style="" mask="url(#path-1-inside-1_92_80)"/>
<path d="M81.752 74.024C71.256 74.024 64.28 66.216 64.28 55.592C64.28 45.032 71.256 37.352 81.752 37.352C88.984 37.352 94.424 40.936 97.368 47.528L90.456 50.6C88.728 46.824 85.848 44.328 81.752 44.328C75.672 44.328 71.896 49.256 71.896 55.592C71.896 61.992 75.608 66.984 81.752 66.984C85.912 66.984 88.792 64.424 90.456 60.584L97.432 63.592C94.488 70.248 89.048 74.024 81.752 74.024ZM106.127 73C102.223 73 100.239 70.504 100.239 67.304V26.6H107.919V65.192C107.919 65.64 108.175 65.896 108.623 65.896H113.551V73H106.127ZM126.535 73.768C120.007 73.768 115.335 69.352 115.335 62.568C115.335 55.464 120.455 50.856 127.303 50.856C130.247 50.856 133.319 51.816 134.919 54.12H135.047V49.96C135.047 46.44 133.127 44.2 130.055 44.2C127.815 44.2 126.087 45.288 125.127 47.144L118.599 43.752C121.159 39.336 125.703 37.352 130.887 37.352C138.311 37.352 142.727 41.96 142.727 49.576V73H135.047V69.032H134.919C133.127 72.168 129.863 73.768 126.535 73.768ZM128.903 68.008C132.487 68.008 135.175 65.384 135.175 61.8C135.175 58.28 132.487 56.04 128.903 56.04C125.383 56.04 122.887 58.536 122.887 62.056C122.887 65.64 125.383 68.008 128.903 68.008ZM163.44 74.024C152.944 74.024 145.968 66.216 145.968 55.592C145.968 45.032 152.944 37.352 163.44 37.352C170.672 37.352 176.112 40.936 179.056 47.528L172.144 50.6C170.416 46.824 167.536 44.328 163.44 44.328C157.36 44.328 153.584 49.256 153.584 55.592C153.584 61.992 157.296 66.984 163.44 66.984C167.6 66.984 170.48 64.424 172.144 60.584L179.12 63.592C176.176 70.248 170.736 74.024 163.44 74.024ZM181.926 73V26.536H189.606V61.352H189.798L204.71 38.376H213.606V38.504L203.494 53.864L215.27 72.872V73H206.566L197.926 59.496L189.03 73H181.926Z" fill="url(#paint2_radial_92_80)" style=""/>
<path d="M0 2.35675H440" stroke="url(#paint3_linear_92_80)" style="" stroke-width="4"/>
<defs>
<radialGradient id="paint0_radial_92_80" cx="0" cy="0" r="1" gradientUnits="userSpaceOnUse" gradientTransform="translate(-19.728 -6.65443) rotate(49.0919) scale(245.043 48.391)">
<stop stop-color="#FF00D2" stop-opacity="0.9" style="stop-color:#FF00D2;stop-color:color(display-p3 1.0000 0.0000 0.8235);stop-opacity:0.9;"/>
<stop offset="1" stop-color="#FF00D2" stop-opacity="0.5" style="stop-color:#FF00D2;stop-color:color(display-p3 1.0000 0.0000 0.8235);stop-opacity:0.5;"/>
</radialGradient>
<linearGradient id="paint1_linear_92_80" x1="44.5397" y1="68.5397" x2="9.46034" y2="33.4603" gradientUnits="userSpaceOnUse">
<stop stop-color="#FF00D2" stop-opacity="0.5" style="stop-color:#FF00D2;stop-color:color(display-p3 1.0000 0.0000 0.8235);stop-opacity:0.5;"/>
<stop offset="1" stop-color="#FF00D2" style="stop-color:#FF00D2;stop-color:color(display-p3 1.0000 0.0000 0.8235);stop-opacity:1;"/>
</linearGradient>
<radialGradient id="paint2_radial_92_80" cx="0" cy="0" r="1" gradientUnits="userSpaceOnUse" gradientTransform="translate(63 35.7273) scale(168 183.273)">
<stop stop-color="white" style="stop-color:white;stop-opacity:1;"/>
<stop offset="1" stop-color="white" stop-opacity="0.9" style="stop-color:white;stop-opacity:0.9;"/>
</radialGradient>
<linearGradient id="paint3_linear_92_80" x1="0" y1="2.85675" x2="440" y2="2.85675" gradientUnits="userSpaceOnUse">
<stop stop-color="white" stop-opacity="0.5" style="stop-color:white;stop-opacity:0.5;"/>
<stop offset="1" stop-color="white" style="stop-color:white;stop-opacity:1;"/>
</linearGradient>
</defs>
</svg>
